PathFileType	4	(X/Y/Z)	DARI_DATA/Captury_Subj5_bilateral_squat03.trc
DataRate	CameraRate	NumFrames	NumMarkers	Units	OrigDataRate	OrigDataStartFrame	OrigNumFrames
60	60	5	47	mm	59.99879837036133	30	236
Frame#	Time		LeftUpLeg_		RightUpLeg_		LeftLeg_		RightLeg_		LeftFoot_		RightFoot_		LeftToeBase_		RightToeBase_		Knee_Lateral_r		Knee_Lateral_l		Ankle_Lateral_r		Ankle_Lateral_l		LeftArm_		LeftForeArm_		LeftHand_		LeftHandEE		RightArm_		RightForeArm_		RightHand_		RightHandEE		Spine_		Spine1_		Spine2_		Spine3_		Spine4_		Spine5_		Spine_x		Spine_y		Spine_z		RASI		LASI		RIPS		LIPS		RTHI		LTHI		RTIB		LTIB		RTOE		LTOE		RHEE		LHEE		RHipAngles		LHipAngles		RKneeAngles		LKneeAngles		RAnkleAngles		LAnkleAngles
			X1	Y1	Z1	X2	Y2	Z2	X3	Y3	Z3	X4	Y4	Z4	X5	Y5	Z5	X6	Y6	Z6	X7	Y7	Z7	X8	Y8	Z8	X9	Y9	Z9	X10	Y10	Z10	X11	Y11	Z11	X12	Y12	Z12	X13	Y13	Z13	X14	Y14	Z14	X15	Y15	Z15	X16	Y16	Z16	X17	Y17	Z17	X18	Y18	Z18	X19	Y19	Z19	X20	Y20	Z20	X21	Y21	Z21	X22	Y22	Z22	X23	Y23	Z23	X24	Y24	Z24	X25	Y25	Z25	X26	Y26	Z26	X27	Y27	Z27	X28	Y28	Z28	X29	Y29	Z29	X30	Y30	Z30	X31	Y31	Z31	X32	Y32	Z32	X33	Y33	Z33	X34	Y34	Z34	X35	Y35	Z35	X36	Y36	Z36	X37	Y37	Z37	X38	Y38	Z38	X39	Y39	Z39	X40	Y40	Z40	X41	Y41	Z41	X42	Y42	Z42	X43	Y43	Z43	X44	Y44	Z44	X45	Y45	Z45	X46	Y46	Z46	X47	Y47	Z47

30	0.48333	-92.15238	983.57324	62.68083	99.29571	985.24872	59.59873	-144.20251	521.36169	32.13424	148.49319	523.73108	16.43665	-183.30724	94.11676	73.01151	186.01016	95.76852	50.77329	-210.18561	36.82710	-58.29491	195.74150	36.22979	-81.91567	201.86517	526.42450	19.02585	-197.55714	524.45520	34.63210	238.45258	99.10358	74.66322	-235.77122	97.50626	96.84637	-152.78835	1569.49170	86.44847	-248.05978	1592.11621	-235.33391	-256.47476	1615.06348	-523.42139	-246.72105	1613.81738	-628.47748	157.76593	1565.11853	72.20778	245.84012	1567.51453	-252.39909	226.92758	1599.84192	-539.08539	233.67111	1607.55017	-644.10242	2.92069	1090.23083	78.23134	1.69017	1203.12402	63.33148	0.90119	1284.14563	82.67905	-0.81162	1377.61084	132.14375	-1.68371	1530.70532	148.50551	1663134.00000	0.00000	1663136.00000	56.61378	1090.70081	77.36694	2.41775	1143.89075	76.16234	3.76630	1092.30762	131.88660	162.27223	1054.46045	-51.89311	-159.88631	1051.64099	-46.70670	46.68430	1059.65686	110.97438	-39.22466	1058.90503	112.35742	196.62906	775.76349	46.65104	-190.78008	774.41895	55.43337	209.20158	332.90842	17.34247	-208.24747	266.53964	36.37498	201.80618	8.26835	-158.94946	-224.80069	8.02464	-133.85712	175.69492	24.31404	108.13483	-190.98941	23.45060	131.74625	-6.90140	2.67915	3.47831	-5.38873	3.90729	1.53922	-4.12899	-0.76996	-0.07177	-3.44957	-0.94791	-0.05876	4.20827	2.62788	-5.87640	2.85866	4.24106	8.90076
31	0.50000	-92.14920	983.92688	62.21990	99.31158	985.52539	60.01152	-143.62897	521.61462	32.23815	148.49025	524.03735	16.51513	-183.40764	94.40454	72.82725	185.84801	96.05310	50.75248	-209.62097	37.48191	-58.77285	196.13884	36.65813	-81.95868	201.85048	526.70117	19.36375	-196.99980	524.66699	34.42013	238.17938	99.36601	74.88771	-236.00790	97.80083	96.35878	-153.02022	1569.45532	86.01271	-248.47006	1592.12708	-235.71346	-256.23544	1614.94214	-523.82965	-247.28358	1613.81067	-628.95837	157.60583	1564.91138	72.22617	246.32593	1567.44385	-252.20374	227.22289	1600.04431	-538.84644	233.68126	1607.34167	-643.91077	2.89384	1090.55847	78.12798	1.77146	1203.27441	63.19966	0.92747	1284.11633	82.54321	-0.94470	1377.37842	132.02716	-1.90045	1530.28699	148.47453	1663134.00000	0.00000	1663136.00000	56.59050	1091.00684	77.50863	2.42152	1144.21704	76.01811	3.49509	1092.67358	131.78502	162.82420	1054.63196	-51.24105	-159.35570	1051.94214	-47.52491	46.49530	1059.99109	111.09264	-39.41934	1059.27380	112.08362	196.60361	776.00830	47.27193	-190.55569	774.67480	54.79166	209.19391	333.21411	17.58063	-207.95776	266.85767	36.07000	202.55750	8.83526	-159.01395	-223.81232	8.95126	-134.51871	174.94885	24.55875	107.95613	-192.07669	23.71833	131.40024	-7.01325	2.67622	3.49265	-5.31915	3.83306	1.47282	-4.16134	-0.74026	-0.08320	-3.33011	-0.84565	-0.05238	4.19004	2.68033	-6.08415	2.74173	4.13386	9.25772
32	0.51667	-92.25515	983.37823	62.26289	99.20412	985.01367	59.95945	-143.87611	521.15112	31.22833	148.50336	523.53802	16.46666	-182.92610	94.02020	73.33107	185.91693	95.58743	51.06315	-208.98376	37.03807	-58.27422	195.95949	36.21957	-81.67914	201.86472	526.21960	19.27678	-197.24738	524.21747	33.37986	238.26761	98.90454	75.15584	-235.54642	97.34113	96.82852	-153.13443	1569.56592	85.74976	-249.02113	1592.19629	-235.84937	-256.05411	1614.97217	-523.98749	-248.26131	1613.77002	-629.20770	157.56764	1564.99475	72.53908	246.50453	1567.39941	-251.83241	227.28407	1599.94019	-538.47412	234.27359	1607.57373	-643.48053	2.77568	1090.02185	78.16332	1.62900	1202.87390	63.25560	0.78728	1283.85083	82.61113	-1.06612	1377.25610	132.09976	-1.99738	1530.30164	148.52864	1663134.00000	0.00000	1663136.00000	56.47191	1090.48047	77.51730	2.29219	1143.68115	76.07373	3.40333	1092.11707	131.82085	162.64810	1054.17383	-51.29902	-159.52927	1051.42188	-47.42292	46.39935	1059.45032	111.09477	-39.51461	1058.71643	112.12840	196.55586	775.52747	47.16773	-190.72980	774.17773	54.30582	209.22079	332.71985	17.65788	-207.76027	266.29706	35.94322	202.26530	8.47835	-158.77316	-223.05890	8.54923	-134.05748	174.77478	24.10535	108.23528	-191.96011	23.42356	131.95691	-6.98744	2.68288	3.47942	-5.42421	3.85895	1.40214	-4.20896	-0.75277	-0.08913	-3.66640	-0.95263	-0.06043	4.13316	2.69864	-6.30027	2.56088	4.04278	9.53485
33	0.53333	-92.35080	983.45154	62.31367	99.11064	985.02252	60.14584	-143.67938	521.19714	31.20366	148.40558	523.54285	16.69396	-182.91344	94.08539	73.32719	185.91431	95.59164	51.17709	-208.66411	37.49891	-58.50903	195.69688	36.45264	-81.68669	201.76822	526.22681	19.47752	-197.05583	524.23590	33.26384	238.27737	98.88318	75.24641	-235.58426	97.35859	96.71793	-153.25780	1569.45984	85.46008	-249.74094	1592.20715	-235.95236	-256.52402	1615.04895	-524.09131	-248.87096	1613.88086	-629.32220	157.48230	1564.86597	72.69569	246.82280	1567.33875	-251.56432	227.45935	1600.14319	-538.16632	234.72533	1607.23315	-643.19208	2.70413	1090.06982	78.23963	1.60115	1202.87451	63.32925	0.76805	1283.79932	82.69887	-1.08737	1377.13367	132.22409	-2.02637	1530.12183	148.74042	1663134.00000	0.00000	1663136.00000	56.40097	1090.51038	77.63165	2.23995	1143.72839	76.12851	3.29430	1092.18604	131.89676	162.65672	1054.11768	-51.09476	-159.52428	1051.47412	-47.44686	46.29421	1059.49683	111.21420	-39.62072	1058.79187	112.18697	196.46384	775.53821	47.33590	-190.70343	774.19995	54.19401	209.15839	332.73560	17.81277	-207.63087	266.35876	35.84665	201.87894	8.88773	-158.85393	-222.53810	9.31194	-134.44211	174.56378	24.03425	108.21384	-192.32614	23.36541	131.74440	-7.00325	2.69844	3.40939	-5.44298	3.80690	1.34779	-4.18780	-0.74553	-0.08847	-3.67568	-0.90939	-0.08174	4.05336	2.69043	-6.50475	2.38618	3.98187	9.66437
34	0.55000	-92.41751	983.42072	62.26640	99.04851	984.93915	60.50129	-143.81795	521.16211	31.33573	148.37714	523.48828	16.78106	-183.11205	94.03372	73.23601	185.93980	95.54935	51.35766	-208.38232	37.68216	-58.79361	195.69104	36.58235	-81.58488	201.73581	526.16663	19.64496	-197.19859	524.21991	33.25432	238.26529	98.82867	75.51022	-235.85333	97.26012	96.47398	-153.24379	1569.56726	85.17671	-250.70203	1592.23413	-235.94710	-257.00595	1614.85217	-524.11450	-249.82610	1614.34619	-629.38397	157.48930	1564.68542	72.96928	246.92212	1567.34656	-251.26379	227.90273	1600.30432	-537.87122	234.87082	1606.79468	-642.95587	2.63319	1090.00891	78.41730	1.59515	1202.84009	63.52862	0.75155	1283.78479	82.91363	-1.15982	1377.13501	132.45384	-2.07739	1530.14404	148.99420	1663134.00000	0.00000	1663136.00000	56.33131	1090.43481	77.92226	2.18826	1143.66809	76.31792	3.11119	1092.11230	132.07605	162.84731	1054.04297	-50.58913	-159.34138	1051.48779	-47.61890	46.14544	1059.41614	111.47615	-39.77155	1058.73474	112.26821	196.40678	775.45789	47.67963	-190.81799	774.19604	54.03154	209.17621	332.69644	18.01039	-207.74474	266.31293	35.72619	201.88185	9.17005	-158.80579	-221.96533	9.70168	-134.85555	174.30605	23.94056	108.27272	-192.77138	23.21725	131.49586	-7.03273	2.70779	3.37260	-5.39041	3.80895	1.31879	-4.23399	-0.72483	-0.08557	-3.62240	-0.93872	-0.09798	3.98000	2.65816	-6.69761	2.29759	3.93993	9.69264
